<?xml version="1.0" encoding="UTF-8" standalone="no"?>
<!-- Generator: Adobe Illustrator 16.0.4, SVG Export Plug-In . SVG Version: 6.00 Build 0)  -->

<svg
   xmlns:dc="http://purl.org/dc/elements/1.1/"
   xmlns:cc="http://creativecommons.org/ns#"
   xmlns:rdf="http://www.w3.org/1999/02/22-rdf-syntax-ns#"
   xmlns:svg="http://www.w3.org/2000/svg"
   xmlns="http://www.w3.org/2000/svg"
   xmlns:sodipodi="http://sodipodi.sourceforge.net/DTD/sodipodi-0.dtd"
   xmlns:inkscape="http://www.inkscape.org/namespaces/inkscape"
   version="1.1"
   id="Layer_1"
   x="0px"
   y="0px"
   width="512px"
   height="512px"
   viewBox="0 0 512 512"
   enable-background="new 0 0 512 512"
   xml:space="preserve"
   inkscape:version="0.48.5 r10040"
   sodipodi:docname="service.svg"><metadata
     id="metadata13"><rdf:RDF><cc:Work
         rdf:about=""><dc:format>image/svg+xml</dc:format><dc:type
           rdf:resource="http://purl.org/dc/dcmitype/StillImage" /></cc:Work></rdf:RDF></metadata><defs
     id="defs11" /><sodipodi:namedview
     pagecolor="#ffffff"
     bordercolor="#666666"
     borderopacity="1"
     objecttolerance="10"
     gridtolerance="10"
     guidetolerance="10"
     inkscape:pageopacity="0"
     inkscape:pageshadow="2"
     inkscape:window-width="920"
     inkscape:window-height="726"
     id="namedview9"
     showgrid="false"
     inkscape:zoom="0.4609375"
     inkscape:cx="256"
     inkscape:cy="342.77966"
     inkscape:window-x="776"
     inkscape:window-y="314"
     inkscape:window-maximized="0"
     inkscape:current-layer="g3" /><g
     id="g3"><path
       d="M422,188c3-51-32-90-80-90c-16,0-31,4-45,12c-26-36-62-56-102-56s-77,20-99,53c-17,26-23,57-15,88c-60,26-76,76-70,113   c7,48,46,83,92,83c2,0,179,1,287,1c71,0,107-50,110-96C503,254,480,205,422,188z M460,293c-2,29-25,59-70,59c-107,0-285-1-287-1   c-30,0-49-25-53-49c-5-34,18-63,62-76c9-3,18-14,13-27c-24-58,22-105,70-105c32,0,60,20,79,55c6,11,22,15,32,5s23-16,36-16   c31,0,46,28,38,61c-3,12,6,23,16,24C443,230,462,263,460,293z"
       id="path5" /><path
       d="M188,114c-41,4-54,37-52,58c1,9,8,16,17,16c11,0,19-9,18-19c0-4,0-18,20-20c10-1,17-9,16-19S198,113,188,114z"
       id="path7" /><path
       style="fill:#ffffff"
       d="m 159.5109,349.35795 -72.841642,-1.15456 -8.881135,-5.88073 c -21.980729,-14.55473 -31.663894,-41.7592 -23.98568,-67.38679 4.983642,-16.63391 31.678307,-39.50266 53.804337,-46.09303 17.52363,-5.21951 22.59046,-17.05645 16.25619,-37.97712 -4.94088,-16.31862 -3.68965,-40.68134 2.72729,-53.10301 6.81953,-13.20098 22.27614,-27.94844 36.53804,-34.86167 11.19969,-5.42888 15.28188,-6.212804 32.34289,-6.210975 17.15485,0.0018 20.94323,0.739503 31.20333,6.075835 15.06626,7.83603 29.5082,21.44549 41.45988,39.06999 13.77143,20.30801 25.1727,23.95572 39.11368,12.51395 19.39926,-15.92157 39.86058,-19.08461 55.69034,-8.60898 13.34995,8.83458 16.93955,18.25375 16.93955,44.44961 0,20.1207 0.4442,22.52836 5.06509,27.45403 2.78578,2.96955 8.56304,6.05539 12.83831,6.85744 24.51109,4.59831 43.23376,17.01054 53.15508,35.23929 20.55834,37.77243 -2.46437,81.59837 -46.93343,89.3423 -13.95279,2.42979 -102.25608,2.52889 -244.49212,0.27442 l 0,0 z m 3.33581,-163.13902 c 3.83678,-1.74815 6.25272,-5.25806 7.83984,-11.38983 5.25561,-20.30479 4.66821,-19.50024 17.21892,-23.58434 6.54758,-2.13063 13.61317,-5.89981 15.70131,-8.37594 5.70802,-6.76862 4.88206,-18.31958 -1.78682,-24.98846 -4.98691,-4.98691 -6.71179,-5.43374 -16.14502,-4.18238 -30.72304,4.07556 -49.86477,24.48675 -49.86477,53.17176 0,11.33384 0.68743,13.42386 5.7163,17.37958 6.44047,5.06607 13.16152,5.68698 21.32024,1.96961 l 0,0 z"
       id="path2990"
       inkscape:connector-curvature="0" /><path
       style="fill:#ffffff"
       d="m 159.5109,349.42351 -72.841642,-1.22012 -8.881135,-5.88073 c -21.980729,-14.55473 -31.663894,-41.7592 -23.98568,-67.38679 1.434262,-4.78714 7.366841,-13.89919 13.216438,-20.29958 10.063962,-11.01158 13.843145,-13.30915 49.005339,-29.79305 2.83977,-1.33128 6.69125,-5.62482 8.55885,-9.54122 3.11957,-6.54181 3.07166,-8.42174 -0.58935,-23.12354 -4.92856,-19.79201 -3.87059,-41.81196 2.61444,-54.41577 6.7824,-13.18174 22.24474,-27.9419 36.52014,-34.86167 11.19969,-5.42888 15.28188,-6.212804 32.34289,-6.210975 17.1193,0.0018 20.95311,0.744794 31.11097,6.029025 14.69908,7.64663 28.98104,20.78945 39.62701,36.46634 14.91413,21.96202 25.07579,26.13161 39.04289,16.0203 15.9573,-11.55211 24.4521,-15.03528 36.87287,-15.11917 9.5877,-0.0648 13.97066,1.12593 20.81349,5.6543 13.34183,8.82922 16.93955,18.25833 16.93955,44.39635 0,27.16331 1.29225,28.96644 26.20554,36.56546 10.43945,3.18423 21.94205,8.48263 27.36068,12.60305 17.90201,13.61299 28.16321,38.61171 24.57255,59.86461 -3.39272,20.08135 -22.71953,41.23283 -44.12698,48.29311 -9.12686,3.01006 -134.17075,3.97358 -254.37886,1.96007 l 0,0 z m 5.21416,-165.11074 c 3.51222,-2.76271 6.12678,-7.46292 6.93917,-12.47457 2.42591,-14.96566 4.41228,-17.40576 17.19396,-21.12149 6.89153,-2.00342 13.39182,-5.47722 15.27189,-8.16139 5.14907,-7.35133 4.13015,-18.23469 -2.31012,-24.67496 -4.98691,-4.98691 -6.71179,-5.43374 -16.14502,-4.18238 -30.51554,4.04803 -49.79384,24.83251 -49.84358,53.73778 -0.0184,10.73542 0.71287,12.89452 5.69511,16.81356 7.2574,5.70867 15.99149,5.73256 23.19859,0.0635 l 0,-1e-5 z"
       id="path2992"
       inkscape:connector-curvature="0" /><path
       style="fill:#ffffff"
       d="m 158.42604,349.42377 -71.756999,-1.22038 -8.881026,-5.88073 C 55.807348,327.76778 46.12425,300.5634 53.802443,274.93587 c 1.434262,-4.78714 7.366841,-13.89919 13.216438,-20.29958 10.063962,-11.01158 13.843145,-13.30915 49.005339,-29.79305 2.83977,-1.33128 6.68638,-5.61461 8.54803,-9.51853 3.1048,-6.51083 3.05819,-8.35737 -0.56341,-22.3206 -4.9887,-19.23418 -3.89163,-42.71112 2.58142,-55.2414 6.81953,-13.20098 22.27614,-27.94844 36.53804,-34.86167 11.19969,-5.42888 15.28188,-6.212804 32.34289,-6.210975 17.1193,0.0018 20.95311,0.744794 31.11097,6.029025 14.69908,7.64663 28.98104,20.78945 39.62701,36.46634 14.91413,21.96202 25.07579,26.13161 39.04289,16.0203 15.9573,-11.55211 24.4521,-15.03528 36.87287,-15.11917 9.5877,-0.0648 13.97066,1.12593 20.81349,5.6543 13.34285,8.82989 16.93955,18.25776 16.93955,44.40303 0,27.16559 1.28434,28.95735 26.20554,36.55878 10.43945,3.18423 21.94205,8.48263 27.36068,12.60305 17.90201,13.61299 28.16321,38.61171 24.57255,59.86461 -3.39259,20.08059 -22.71592,41.22896 -44.12698,48.2947 -9.11111,3.00669 -136.44102,3.98299 -255.46372,1.95874 l 0,0 z m 6.29902,-165.111 c 3.51222,-2.76271 6.12678,-7.46292 6.93917,-12.47457 2.3516,-14.50721 4.27359,-16.8245 18.15127,-21.88456 7.26782,-2.64998 14.1983,-6.65691 15.40106,-8.90429 3.84998,-7.19375 2.47854,-16.43998 -3.37532,-22.7564 -5.12678,-5.53189 -6.42367,-5.88738 -16.56863,-4.5416 -12.57045,1.66753 -28.80228,9.26681 -35.76846,16.74577 -13.74288,14.75448 -18.22071,43.07168 -8.36887,52.92353 6.56492,6.56492 15.92784,6.91901 23.58978,0.89212 l 0,0 z"
       id="path2994"
       inkscape:connector-curvature="0" /><path
       style="fill:#ffffff"
       d="m 158.42604,349.42377 -71.756999,-1.22038 -8.881026,-5.88073 C 55.746696,327.72762 46.18196,300.74183 53.817407,274.69238 c 4.277043,-14.59176 24.885066,-33.39133 47.616943,-43.43834 15.02448,-6.64049 19.55672,-9.74727 22.67992,-15.5467 3.76203,-6.98567 3.75931,-7.80253 -0.0752,-22.5868 -5.04383,-19.4467 -3.94089,-42.76077 2.6292,-55.57659 6.79399,-13.25258 21.82236,-27.54976 36.36969,-34.60016 11.29885,-5.476021 15.3417,-6.255557 32.43326,-6.253725 17.1193,0.0018 20.95311,0.744794 31.11097,6.029025 14.74806,7.67211 28.13962,20.02973 40.54557,37.41511 16.7628,23.49094 23.18169,25.23975 43.0653,11.73295 21.08611,-14.32366 38.413,-16.19021 53.71687,-5.78669 12.06335,8.20062 15.95707,18.91447 16.04543,44.15014 0.0952,27.22957 1.28887,28.89562 26.12818,36.47207 10.43945,3.18423 21.94205,8.48263 27.36068,12.60305 17.90201,13.61299 28.16321,38.61171 24.57255,59.86461 -3.39259,20.08059 -22.71592,41.22896 -44.12698,48.2947 -9.11111,3.00669 -136.44102,3.98299 -255.46372,1.95874 l 0,0 z m 6.6271,-165.85934 c 2.84973,-2.84974 5.86267,-8.95143 6.69542,-13.55933 2.34664,-12.98483 4.14919,-14.97679 18.1831,-20.09381 16.84491,-6.14197 21.09402,-13.75706 15.0626,-26.99459 -4.08271,-8.96058 -10.90874,-11.21177 -24.66295,-8.13371 -26.40608,5.90942 -44.52114,26.87607 -44.52114,51.52946 0,9.61778 0.97856,12.76165 5.32511,17.1082 6.98323,6.98322 17.01809,7.04355 23.91786,0.14377 l 0,10e-6 z"
       id="path2996"
       inkscape:connector-curvature="0" /><path
       style="fill:#ffffff"
       d="m 156.25633,349.43299 -69.58774,-1.2296 -8.880801,-5.88073 C 55.771873,327.74409 46.12352,300.56583 53.831207,274.83987 c 4.383278,-14.63008 21.435531,-30.6919 44.94571,-42.33516 11.566573,-5.72828 22.335633,-12.69422 24.777753,-16.02745 4.25427,-5.80661 4.26012,-6.15554 0.38765,-23.11076 -4.85932,-21.276 -3.79021,-43.02686 2.74382,-55.82255 6.73298,-13.18532 21.72052,-27.48017 36.33507,-34.65576 11.45308,-5.623338 15.14755,-6.334739 32.44998,-6.248511 15.82763,0.07888 21.46321,1.042074 29.75751,5.085961 14.11258,6.88059 28.0163,19.63224 42.618,39.08664 9.98802,13.30742 13.89863,16.85761 20.33523,18.46099 7.3018,1.8189 9.09759,1.22739 21.44497,-7.06367 21.89546,-14.70244 38.8546,-16.61731 54.283,-6.12914 11.61724,7.89736 15.78509,18.91932 17.03639,45.05315 0.70035,14.62693 2.16463,24.27599 4.02282,26.50898 1.60692,1.93102 10.94739,5.95895 20.75659,8.95094 21.19112,6.46369 33.85253,15.04928 42.64904,28.91994 12.78262,20.15608 13.75147,41.27076 2.81574,61.36335 -7.19809,13.22522 -15.13494,20.32193 -31.17692,27.87673 l -11.9322,5.61933 -91.11865,0.14492 c -50.11525,0.0796 -122.43312,-0.40845 -160.70638,-1.08474 l 0,-7e-5 z m 8.79681,-165.86856 c 2.84973,-2.84974 5.86267,-8.95143 6.69542,-13.55933 2.30174,-12.73638 4.33075,-15.23922 15.41622,-19.01642 17.9904,-6.12995 23.71805,-15.14797 17.82948,-28.07198 -4.05496,-8.89967 -10.92932,-11.20716 -24.40412,-8.19164 -26.33859,5.89432 -42.18516,23.44674 -44.23618,48.99811 -1.04615,13.03286 -0.75447,14.18707 4.91253,19.43907 7.6846,7.12184 16.91099,7.27784 23.78665,0.40219 l 0,0 z"
       id="path2998"
       inkscape:connector-curvature="0" /><path
       style="fill:#ffffff"
       d="m 155.17208,349.41978 -68.502497,-1.21639 -8.881297,-5.88073 C 61.003128,331.20842 51.472133,313.90249 51.295225,294.21781 c -0.234535,-26.09686 13.94366,-44.87148 46.140989,-61.09943 10.963306,-5.52568 21.255316,-11.14007 22.871146,-12.47642 6.25501,-5.17314 7.18214,-12.82004 3.41707,-28.18374 -4.67886,-19.09251 -3.42447,-42.49211 2.94381,-54.91427 6.76859,-13.20303 21.75185,-27.48676 36.35297,-34.65576 11.45308,-5.623338 15.14755,-6.334739 32.44998,-6.248511 15.90002,0.07924 21.45093,1.035639 29.89567,5.150911 13.71811,6.68506 29.08726,20.75277 42.62819,39.01848 6.51922,8.79394 13.76397,16.01215 17.71269,17.64775 7.14116,2.95797 11.17526,1.50603 33.42446,-12.03001 24.09976,-14.66189 50.67954,-5.52512 59.36141,20.4054 1.358,4.05603 2.4691,14.97552 2.4691,24.26555 0,23.67061 1.56876,26.69845 16.68187,32.19749 6.93344,2.52279 16.60846,6.05668 21.50001,7.85307 12.45468,4.57391 24.83506,15.84663 32.39537,29.49699 5.53329,9.99051 6.43903,13.91468 6.43903,27.89706 0,13.96504 -0.90826,17.91093 -6.40822,27.84048 -7.61457,13.74716 -15.43548,20.77835 -31.55721,28.3707 l -11.9322,5.61933 -92.20339,0.13169 c -50.71187,0.0725 -123.02952,-0.41574 -160.70589,-1.08475 l 0,-4e-5 z m 6.69642,-163.94089 c 4.54522,-2.35042 7.01056,-5.8499 8.78819,-12.47458 4.43271,-16.51927 5.59937,-18.08825 16.46001,-22.13632 21.10766,-7.86741 26.13461,-19.52333 13.75785,-31.90009 -5.89442,-5.89442 -7.42283,-6.38428 -15.72882,-5.04108 -29.44966,4.76244 -49.4799,26.73864 -49.26656,54.05287 0.073,9.34685 2.60025,14.07763 9.69371,18.14572 5.82195,3.33889 8.8186,3.22 16.29562,-0.64652 z"
       id="path3000"
       inkscape:connector-curvature="0" /><path
       style="fill:#ffffff"
       d="M 154.08721,349.41998 86.669332,348.20339 77.78816,342.32266 C 55.572584,327.61249 46.053622,300.79913 53.831207,274.83987 c 4.309345,-14.38332 21.32472,-30.34597 46.173363,-43.31668 27.14839,-14.17114 28.67671,-16.66943 23.66831,-38.6897 -4.6423,-20.41063 -3.32276,-42.9643 3.26583,-55.81972 6.81432,-13.29585 21.02768,-26.73373 36.10828,-34.13819 11.37176,-5.583456 15.21027,-6.329998 32.4242,-6.306095 15.95444,0.02215 21.36492,0.937355 29.58345,5.004145 13.72824,6.79317 25.88643,17.59892 40.42749,35.93045 20.94132,26.40016 22.7968,26.95694 45.26829,13.5838 20.10541,-11.96505 31.70677,-14.27872 45.39149,-9.05248 17.19732,6.56772 24.8208,21.64882 24.8208,49.10151 0,21.34259 2.50368,26.9583 13.88195,31.13698 4.89374,1.79723 14.34468,5.24729 21.00207,7.6668 15.47862,5.62543 27.55835,16.01685 35.69323,30.70462 5.53329,9.99051 6.43903,13.91468 6.43903,27.89706 0,13.96504 -0.90826,17.91093 -6.40822,27.84048 -7.61457,13.74716 -15.43548,20.77835 -31.55721,28.3707 l -11.9322,5.61933 -93.28814,0.13191 c -51.30847,0.0725 -123.62618,-0.41563 -160.70601,-1.08475 l 0,-6e-5 z m 6.33168,-163.08334 c 6.00535,-2.73622 8.90083,-7.67536 12.27072,-20.9315 2.17899,-8.5715 3.34674,-9.69148 16.16479,-15.50345 19.97771,-9.05833 23.87247,-19.08147 12.02015,-30.93379 -5.87755,-5.87755 -7.42456,-6.37752 -15.50785,-5.01185 -13.73031,2.31972 -22.88778,6.86092 -33.42904,16.57752 -17.94757,16.54349 -21.75408,48.36593 -6.65965,55.67478 6.15121,2.97847 8.8355,3.00121 15.14088,0.12828 l 0,10e-6 z"
       id="path3002"
       inkscape:connector-curvature="0" /><path
       style="fill:#ffffff"
       d="M 152.08136,349.41156 C 79.979659,348.07313 79.880292,348.05413 66.749058,333.0985 56.790331,321.75612 53.033355,313.23741 51.750539,299.0903 c -2.612781,-28.81421 10.791459,-47.82473 47.227895,-66.98079 27.863006,-14.64868 29.648046,-17.4967 24.673786,-39.36683 -4.62117,-20.31774 -3.28955,-42.89797 3.28649,-55.72891 6.81432,-13.29585 21.02768,-26.73373 36.10828,-34.13819 11.37176,-5.583456 15.21027,-6.329998 32.4242,-6.306095 30.10844,0.04181 38.70598,5.548625 79.50828,50.925925 14.29754,15.90066 15.35221,15.96065 38.21139,2.17364 17.44542,-10.52183 29.69007,-12.69806 42.95105,-7.63365 17.38628,6.63988 24.8208,21.61502 24.8208,49.99576 0,23.26116 2.73883,26.92274 25.91011,34.63948 20.86322,6.94809 32.93895,15.34043 41.50192,28.84283 12.78262,20.15608 13.75147,41.27076 2.81574,61.36335 -7.19809,13.22522 -15.13494,20.32193 -31.17692,27.87673 l -11.9322,5.61933 -95.45763,0.12345 c -52.5017,0.0679 -124.74576,-0.42028 -160.54237,-1.08475 l 0,-2e-5 z m 10.53565,-165.14712 c 3.5683,-2.80682 6.98672,-8.91752 9.14843,-16.35355 3.35945,-11.55609 3.83655,-12.05778 17.91753,-18.84071 16.5947,-7.99381 20.32205,-13.96655 15.28045,-24.4855 -4.98073,-10.39195 -12.5365,-12.66326 -27.84077,-8.3691 -23.13464,6.49125 -38.28032,24.25284 -40.70379,47.73401 -1.10528,10.70913 -0.71717,12.00451 5.44216,18.16385 7.77685,7.77684 12.92556,8.31042 20.75599,2.151 l 0,0 z"
       id="path3004"
       inkscape:connector-curvature="0" /></g></svg>